<?xml version="1.0" encoding="utf-8"?>
<!-- Generator: Adobe Illustrator 24.2.3, SVG Export Plug-In . SVG Version: 6.00 Build 0)  -->
<svg version="1.1" id="Layer_1" xmlns="http://www.w3.org/2000/svg" xmlns:xlink="http://www.w3.org/1999/xlink" x="0px" y="0px"
	 viewBox="0 0 436.8 350.2" style="enable-background:new 0 0 436.8 350.2;" xml:space="preserve">
<style type="text/css">
	.st0{fill:#F5F5F5;}
	.st1{fill:#E0E0E0;}
	.st2{fill:#EBEBEB;}
	.st3{fill:#263238;}
	.st4{fill:#DD3D31;}
	.st5{opacity:0.3;}
	.st6{fill:#FAFAFA;}
	.st7{fill:#B78876;}
	.st8{fill:#AA6550;}
	.st9{opacity:0.2;}
	.st10{fill:#FFFFFF;}
	.st11{fill:none;}
</style>
<g id="freepik--background-complete--inject-33">
	<path class="st0" d="M42.9,10.5c4.2-1,8.7-0.1,12.3,2.2c3.6,2.4,6.6,5.6,8.8,9.3c4.4,7.1,5.9,16.5,6,24.8
		c-9.2-0.5-17-7.8-20.8-11.8C43.3,28.8,36.5,13.9,42.9,10.5"/>
	<path class="st0" d="M84.8,52.6c-3.7-3.2-5.5-8.1-4.6-12.9c1-4.8,3.8-8.9,7.9-11.6c1.8-1.2,4.1-2.2,6.2-1.6c2,0.7,3.4,2.5,3.7,4.6
		c0.3,2.1,0,4.2-0.8,6.1C95,43.9,91.4,50,84.8,52.6"/>
	<path class="st1" d="M90.2,72.7c-1-1.5-1.9-3.1-2.6-4.8c-0.8-1.8-1.5-3.7-1.8-5.7c-0.6-2.4-1-4.8-1.2-7.2c-0.4-4.5,0.3-9,2.1-13.1
		c0.5-1.2,1.2-2.4,2-3.5c0.6-0.8,1-1.1,1-1.1s-1.2,1.7-2.4,4.8c-1.5,4.1-2.1,8.5-1.8,12.8c0.2,2.4,0.6,4.8,1.1,7.1
		c0.3,1.9,0.9,3.8,1.6,5.6C89.4,70.7,90.3,72.6,90.2,72.7z"/>
	<path class="st1" d="M49.2,21.4c0.7,0.6,1.4,1.3,1.9,2c1.2,1.3,2.9,3.3,5,5.7c4.2,4.8,9.9,11.6,16,19.2S83.5,63,87.2,68.1
		c1.9,2.6,3.4,4.7,4.4,6.2c0.6,0.7,1.1,1.5,1.5,2.4c-0.7-0.7-1.2-1.4-1.8-2.1l-4.6-6c-3.9-5.1-9.3-12.1-15.4-19.7L55.6,29.5
		l-4.8-5.9C50.2,22.9,49.6,22.1,49.2,21.4z"/>
	<path class="st0" d="M78.5,61.6c-8.5-5.8-19.3-7.2-29-3.7c-2.4,0.9-5,2.6-5.1,5.2s2.5,4.4,4.8,5.4c10.3,4.1,21.9,1.5,29.6-6.4"/>
	<path class="st1" d="M56,61.9c0.4-0.2,0.9-0.4,1.4-0.5c0.9-0.2,2.2-0.5,3.9-0.9c4.3-0.8,8.8-0.9,13.2-0.1c2.4,0.5,4.7,1.4,6.8,2.6
		c2.9,1.7,5.3,4.1,7.1,6.9c0.3,0.4,0.5,0.8,0.7,1.3c-0.2,0.1-1.3-1.6-3.7-4c-3.1-3-7-5.1-11.2-5.9c-4.3-0.7-8.6-0.8-12.9-0.1
		C58.1,61.6,56,62,56,61.9z"/>
	<path class="st2" d="M92.1,264.6c29.8-14.5,41.4-48.3,45.4-79.8c0.7-5.2,2.1-10.7,0.4-15.6c-1.8-5-7.1-9-12.1-7.6
		c-4.2,1.2-6.6,5.5-9.3,8.8c-3.7,4.5-8.6,7.9-14.1,9.8c-3.6,1.2-7.9,1.6-10.9-0.7c-4.1-3.2-3.7-9.5-2.8-14.7l4.8-29
		c0.9-5.2,1.7-10.5,0.9-15.7s-3.7-10.3-8.4-12.5s-11.3-0.3-13.1,4.6c-0.8,2.1-0.7,4.3-1.2,6.4s-1.9,4.4-4,4.6s-4-1.5-5.3-3.3
		c-4.5-6.1-7.1-13.4-9.4-20.7s-4.5-14.7-8.5-21.1S34.3,66,27,64.4s-16,1.7-19.1,8.7s0,15.1,3.7,21.8c5.5,9.9,12.4,18.9,20.5,26.8
		c1.4,1.4,3,3,3.3,5c0.6,3.6-3.2,6.6-6.8,7.1c-4.1,0.7-8.2-0.4-12.3-0.6s-8.8,0.9-10.9,4.5c-3,5,0.6,11.2,4.4,15.6
		c7.6,8.7,16.6,16,26.7,21.6c3.6,2,7.4,3.9,10.1,7s3.8,8.1,1.3,11.5s-7.4,3.8-11.3,2.4s-7.1-4.1-10.7-6.1c-6.7-3.8-16-4.8-21.5,0.6
		c-3.7,3.6-4.8,9.2-4.1,14.3s3.2,9.7,5.8,14.1c9.3,15.2,22.2,28.4,37.9,36.8S74.6,268,92.1,264.6"/>
	<path class="st1" d="M87.8,266.2c0.8-12.6,1.4-6-0.7-22.6s-5.9-34.4-10.5-53l-3.5-13.8c-1.2-4.5-2.3-9-3.7-13.3
		c-2.7-8.3-5.8-16.4-9.4-24.3c-3.3-7.6-6.8-14.7-10.1-21.3s-6.5-12.7-9.6-18.1c-4.9-8.6-10.5-16.8-16.7-24.5c-2.2-2.7-4-4.8-5.2-6.1
		l-1.4-1.6c-0.1-0.2-0.3-0.4-0.5-0.5c0.1,0.2,0.3,0.4,0.4,0.6c0.3,0.4,0.8,0.9,1.3,1.6c1.2,1.4,2.9,3.5,5,6.3
		c6.1,7.8,11.6,16,16.4,24.6c3.1,5.4,6.2,11.5,9.5,18.1s6.7,13.7,10,21.3c3.5,7.9,6.6,16,9.3,24.3c1.4,4.3,2.5,8.7,3.6,13.3
		s2.3,9.1,3.5,13.8c4.6,18.6,8.4,36.5,10.6,52.9s1.7,9.9,0.9,22.4"/>
	<path class="st1" d="M69.2,163.5c0.4-0.7,0.6-1.4,0.9-2.1c0.5-1.4,1.2-3.4,1.9-5.9c1.6-5.1,3.5-12.1,5.6-19.9s4.1-14.8,5.7-19.8
		c0.8-2.5,1.5-4.5,2-5.9c0.3-0.7,0.5-1.5,0.7-2.2c-0.4,0.7-0.7,1.3-1,2.1c-0.6,1.4-1.4,3.4-2.3,5.9c-1.8,5-3.9,12-6,19.8
		c-2.1,7.8-3.9,14.6-5.3,20c-0.6,2.4-1.2,4.4-1.6,6C69.5,162,69.3,162.7,69.2,163.5z"/>
	<path class="st1" d="M4.4,140.4c0.8,0.3,1.7,0.6,2.6,0.8c1.7,0.4,4.1,1,7.1,1.9c6,1.6,14.2,4.2,23.2,7.4c9,3.2,16.9,6.5,22.6,9
		c2.9,1.2,5.2,2.3,6.7,3c0.8,0.4,1.6,0.8,2.5,1.1c-0.7-0.5-1.5-1-2.3-1.4c-1.5-0.8-3.8-2-6.6-3.3c-5.6-2.7-13.6-6.1-22.6-9.3
		c-7.7-2.8-15.4-5.2-23.3-7.1c-3-0.8-5.5-1.3-7.2-1.6C6.2,140.5,5.3,140.4,4.4,140.4z"/>
	<path class="st1" d="M86.5,242.3c0,0,0.2-0.2,0.6-0.7l1.5-2.2c1.3-2,3.1-4.8,5.4-8.4c4.4-7.1,10.3-17.2,16.5-28.4
		s12-21.3,16.3-28.5c2.1-3.5,3.8-6.4,5.1-8.5c0.6-0.9,1-1.7,1.4-2.3c0.2-0.3,0.3-0.5,0.4-0.9c0,0-0.2,0.2-0.6,0.7l-1.6,2.2
		c-1.3,2-3.1,4.8-5.4,8.4c-4.4,7.2-10.2,17.2-16.5,28.4s-12,21.3-16.3,28.5c-2.1,3.5-3.8,6.4-5.1,8.5l-1.4,2.3
		C86.7,241.7,86.6,242,86.5,242.3z"/>
	<path class="st1" d="M2.3,199.6c0.2,0.2,0.5,0.4,0.8,0.5l2.4,1.3l9,4.6c7.6,3.9,18.1,9.4,29.6,15.4s22,11.5,29.7,15.2
		c3.8,1.9,7,3.3,9.2,4.3l2.5,1.1c0.3,0.1,0.6,0.3,0.9,0.3c-0.2-0.2-0.5-0.4-0.8-0.5l-2.4-1.3l-9-4.6c-7.6-3.9-18.1-9.4-29.6-15.4
		s-22-11.5-29.7-15.2c-3.8-1.9-7-3.3-9.2-4.3l-2.5-1.1C2.9,199.8,2.6,199.7,2.3,199.6z"/>
</g>
<g id="freepik--Floor--inject-33">
	<path class="st3" d="M427.9,349.9c0,0.1-94.7,0.3-211.4,0.3S5,350.1,5,349.9s94.6-0.3,211.4-0.3S427.9,349.8,427.9,349.9z"/>
</g>
<g id="freepik--Plant--inject-33">
	<path class="st4" d="M28.3,184.3c0,0,6.9-4.7,15.5,11.9s11.9,26.1,11.9,26.1s2.3,3.5,4.6,1.2s5.6-8.8,9.7-7.6s5.7,5.9,4.9,12.8
		S73.1,250.7,73,252s0.7,3.3,2.6,2s12.6-13.4,18-8s0.2,24.4-0.3,26.4s-0.1,3,0.9,3.5s4.2-3.9,7.4-7.2s7.4-6.6,10.3-3.2
		s3.9,17.5-9.3,40.7l-6.9,10.3l-12.4-0.6c-26.5-2.9-37.4-12-38.4-16.3s4.1-5.8,8.7-6.5s10-0.6,10.2-1.7s-0.3-2-2.3-2.7
		S41,281,39.8,273.4s14.9-9.1,17.1-9.9s1-2.5-0.1-3.3s-14.1-8.8-20.1-12.3s-9-7.4-7.4-11.5c1.5-4,8.6-2.8,11.9-3.3s1.8-4.4,1.8-4.4
		s-5.8-8.3-14.1-25s-0.3-19.6-0.3-19.6"/>
	<path class="st3" d="M36,199.1c0.1,0.1,0.1,0.2,0.2,0.3l0.5,0.9l1.8,3.4l6.4,12.6c5.4,10.6,13,25.2,21.2,41.4s15.8,30.8,21.1,41.5
		c2.6,5.3,4.8,9.6,6.3,12.6l1.7,3.5l0.4,0.9c0.1,0.2,0.1,0.3,0.1,0.3s-0.1-0.1-0.2-0.3l-0.5-0.9c-0.4-0.8-1-2-1.8-3.4
		c-1.5-3-3.7-7.3-6.4-12.6c-5.4-10.6-12.9-25.3-21.3-41.4s-15.8-30.8-21.1-41.5l-6.3-12.6c-0.7-1.5-1.3-2.6-1.7-3.5
		c-0.2-0.4-0.3-0.7-0.4-0.9C36.1,199.3,36,199.2,36,199.1z"/>
	<path class="st3" d="M65.9,225c-0.2,1.1-0.4,2.2-0.7,3.3c-0.5,2.1-1.1,4.8-1.8,7.8s-1.3,5.8-1.9,7.8c-0.3,1-0.5,1.8-0.7,2.3
		c-0.1,0.3-0.2,0.6-0.3,0.8c0.2-1.1,0.4-2.2,0.7-3.3l1.7-7.8c0.7-3.1,1.4-5.8,1.9-7.8c0.3-1,0.5-1.8,0.7-2.3
		C65.6,225.5,65.7,225.3,65.9,225z"/>
	<path class="st3" d="M59.4,247.3c0,0.1-5.7-1.3-12.7-3.3s-12.6-3.6-12.6-3.7s5.7,1.3,12.7,3.3S59.4,247.2,59.4,247.3z"/>
	<path class="st3" d="M75.4,275.1c-0.3,0.1-0.6,0.1-0.9,0.1c-0.6,0.1-1.4,0.1-2.5,0.2c-2.1,0.1-5,0.2-8.2,0.1s-6.1-0.3-8.2-0.5
		c-1-0.1-1.9-0.2-2.5-0.3c-0.3,0-0.6-0.1-0.9-0.2c1.1,0,2.3,0,3.4,0.2c2.1,0.1,5,0.3,8.2,0.4s6.1,0.1,8.2,0.1
		C73.1,275,74.3,275.1,75.4,275.1z"/>
	<path class="st3" d="M85.7,256.2c-0.4,1-0.9,1.9-1.4,2.8c-0.9,1.7-2.2,4.1-3.7,6.6s-2.8,4.9-3.8,6.6c-0.5,0.9-1.1,1.8-1.7,2.6
		c0.4-1,0.9-1.9,1.4-2.8c0.9-1.7,2.2-4.1,3.7-6.6s2.8-4.9,3.8-6.6C84.5,258,85.1,257.1,85.7,256.2z"/>
	<path class="st3" d="M103,279c-0.1,0.4-0.3,0.7-0.4,1l-1.4,2.6c-1.2,2.2-2.9,5.2-4.8,8.5s-3.6,6.3-4.9,8.4c-0.6,1-1.1,1.8-1.5,2.5
		c-0.2,0.3-0.4,0.6-0.6,0.9c0.1-0.3,0.3-0.7,0.4-1l1.4-2.6c1.2-2.2,2.9-5.2,4.8-8.5s3.6-6.2,4.9-8.4l1.5-2.5
		C102.6,279.6,102.8,279.3,103,279z"/>
	<path class="st3" d="M89.5,302.2c-0.4,0.1-0.8,0.1-1.2,0.1c-0.8,0-1.8,0-3.2,0.1c-2.7,0-6.3,0-10.4-0.3s-7.7-0.6-10.4-0.9
		c-1.3-0.1-2.4-0.3-3.1-0.4c-0.4,0-0.8-0.1-1.1-0.2c0.4,0,0.8,0,1.2,0l3.1,0.3c2.7,0.2,6.3,0.5,10.4,0.7s7.7,0.3,10.4,0.4l3.2,0.1
		C88.8,302,89.1,302.1,89.5,302.2z"/>
</g>
<g id="freepik--Character--inject-33">
	<path class="st4" d="M414.6,178.8l-33.5,32.6l-30.8,58.9l-34.7,66.5l-42.6-20L227,293.2l29.5-56.3l18.3-63
		c-12.9,8.6-37,20.3-65.7,14.2c-31.1-6.6-16.2-124-16.2-124l34.2-0.9l3.4,82.8l38.6-17.1l0.1,0.1c2.3-1,4.4-2,5.5-2.5
		c21.4-11.7,35.4-13.1,58.4-4.9l0,0l33.1,11C374.7,136.6,406.1,152.1,414.6,178.8"/>
	<path class="st3" d="M297.5,119.1c0,0-0.8,0.4-2.1,1.4c-1.8,1.3-3.4,2.9-4.8,4.7c-2,2.7-3.6,5.6-4.7,8.8c-1.4,3.9-2.6,7.8-3.5,11.8
		l-5.9,21.6c-0.8,2.7-1.4,4.9-1.9,6.5c-0.2,0.7-0.4,1.3-0.5,1.8c0,0.2-0.1,0.4-0.2,0.6c0-0.2,0.1-0.4,0.1-0.6
		c0.1-0.5,0.2-1.1,0.4-1.8c0.4-1.6,1-3.9,1.7-6.6c1.5-5.6,3.5-13.2,5.7-21.7c1-4,2.2-7.9,3.6-11.8c1.2-3.2,2.8-6.2,4.9-8.8
		c1.4-1.8,3.1-3.4,5-4.7c0.5-0.3,1-0.7,1.6-0.9C297.1,119.3,297.3,119.2,297.5,119.1z"/>
	<g class="st5">
		<path d="M285,135.7c-9.6,25.9-26.8,40.4-51.1,53.4c14.4-1.6,28.2-6.6,40.2-14.7"/>
	</g>
	<g class="st5">
		<path d="M315.5,117.3c4.1,64.9,8.1,129.8,12.2,194.8l-12,24.7L315.5,117.3z"/>
	</g>
	<path class="st6" d="M353.2,184.6c-0.1,0.1-1.4-3-3.1-6.7s-3.2-6.6-3.1-6.7c0.5,0.6,0.9,1.2,1.2,1.8c0.7,1.2,1.5,2.8,2.4,4.7
		s1.5,3.6,2,4.8C352.9,183.2,353.1,183.9,353.2,184.6z"/>
	<path class="st6" d="M380.4,171c-2.1,1.6-4.2,3.1-6.5,4.4c-2.2,1.5-4.4,2.8-6.8,3.9c2.1-1.6,4.2-3,6.5-4.4
		C375.8,173.4,378.1,172.1,380.4,171z"/>
	<path class="st6" d="M368.6,161.1c-0.3-1.7-0.5-3.5-0.5-5.3c-0.2-1.8-0.2-3.6,0-5.4c0.4,1.8,0.5,3.5,0.5,5.3
		C368.8,157.5,368.8,159.3,368.6,161.1z"/>
	<path class="st6" d="M395.8,159.2c-3.4-1.7-6.5-3.6-9.5-5.9c1.7,0.8,3.4,1.7,4.9,2.7C392.8,156.9,394.4,158,395.8,159.2z"/>
	<path class="st6" d="M354.2,213.1c0.7-2.4,1.6-4.7,2.7-6.9c0.9-2.3,2-4.5,3.2-6.7c-0.7,2.4-1.6,4.7-2.7,6.9
		C356.5,208.7,355.5,211,354.2,213.1z"/>
	<path class="st6" d="M342.1,225.4c-1-1.3-1.8-2.8-2.4-4.3c-0.8-1.4-1.5-3-2-4.5c1,1.3,1.8,2.8,2.5,4.3
		C341,222.3,341.6,223.8,342.1,225.4z"/>
	<path class="st6" d="M352.3,241.9c-1.6,0.7-3.4,1.1-5.1,1.3c-1.7,0.3-3.5,0.4-5.3,0.2c0-0.1,2.4-0.3,5.2-0.7
		S352.2,241.7,352.3,241.9z"/>
	<path class="st6" d="M365.3,223.8c0.4-1.7,1-3.3,1.8-4.9c0.6-1.6,1.3-3.2,2.2-4.6c-0.4,1.7-1,3.3-1.8,4.9
		C366.9,220.8,366.2,222.4,365.3,223.8z"/>
	<path class="st6" d="M333.7,262c-0.1,0.1-1.6-2-3.6-4.3s-3.8-4.1-3.7-4.2C329.3,255.8,331.8,258.7,333.7,262z"/>
	<path class="st6" d="M327.9,221c-0.7,1.7-1.6,3.4-2.6,5c-0.9,1.7-1.9,3.3-3.1,4.8c0.7-1.7,1.6-3.4,2.6-5
		C325.7,224.1,326.8,222.5,327.9,221z"/>
	<path class="st6" d="M332,206.9c-1.9-0.2-3.8-0.6-5.6-1.2c-1.9-0.4-3.7-1-5.5-1.7c1.9,0.2,3.8,0.6,5.6,1.2
		C328.4,205.6,330.3,206.2,332,206.9z"/>
	<path class="st6" d="M331.8,177.9c1.1,1.3,2.1,2.6,3,4.1c1,1.3,2,2.7,2.8,4.2c-1.2-1.2-2.3-2.5-3.2-3.9
		C333.3,180.9,332.4,179.5,331.8,177.9z"/>
	<path class="st6" d="M322.5,176.5c-2.2,2.4-4.6,4.5-7.3,6.3c1-1.2,2.2-2.4,3.5-3.4C319.9,178.3,321.2,177.3,322.5,176.5z"/>
	<path class="st6" d="M329.8,161.3c-3.4-2.7-6.2-6-8.3-9.7c0.1-0.1,1.8,2.3,4.1,4.9C327.9,159.2,329.9,161.2,329.8,161.3z"/>
	<path class="st6" d="M355.4,156.6c-1.8,0.8-3.7,1.5-5.6,2c-1.9,0.7-3.8,1.2-5.8,1.5c1.8-0.8,3.7-1.5,5.6-2
		C351.5,157.4,353.5,156.9,355.4,156.6z"/>
	<path class="st6" d="M319.4,132.3c-0.1,0-0.1-2.3-0.4-5.1c-0.4-2.8-1-5-0.8-5C319.5,125.4,319.9,128.9,319.4,132.3L319.4,132.3z"/>
	<path class="st6" d="M296.6,204.8c-0.7,0.6-1.5,1.2-2.4,1.7c-1.5,1-3.5,2.5-5.7,4.2s-4.1,3.3-5.4,4.5c-0.7,0.7-1.5,1.3-2.2,1.9
		c0.6-0.8,1.3-1.5,2-2.1c1.7-1.6,3.5-3.2,5.4-4.6c1.9-1.5,3.8-2.8,5.8-4.1C294.9,205.6,295.8,205.2,296.6,204.8z"/>
	<path class="st6" d="M295.3,196.7c-0.1,0.1-1.8-2.5-4.1-5.6s-4.4-5.4-4.3-5.5c0.6,0.4,1.1,0.9,1.5,1.4c1.1,1.2,2.2,2.5,3.2,3.8
		c1.2,1.5,2.1,3,2.8,4.1C294.8,195.5,295.1,196.1,295.3,196.7z"/>
	<path class="st6" d="M301.4,165.1c-3.1,2.1-6.4,3.9-9.8,5.4c1.5-1.1,3.1-2.1,4.8-2.9C298,166.6,299.7,165.8,301.4,165.1z"/>
	<path class="st6" d="M295.4,151.3c-0.6-0.4-1.2-0.8-1.7-1.4c-1.3-1.2-2.5-2.5-3.6-3.8c-1.1-1.4-2.1-2.8-3-4.3
		c-0.4-0.6-0.8-1.3-1-1.9c0.1-0.1,1.9,2.8,4.4,5.9C293.1,149,295.5,151.2,295.4,151.3z"/>
	<path class="st6" d="M305.8,151c0.5-1.5,1.1-3,1.8-4.4c0.6-1.5,1.4-2.9,2.3-4.1c-0.4,1.5-1.1,3-1.8,4.4
		C307.5,148.4,306.7,149.7,305.8,151z"/>
	<path class="st6" d="M303,135.3c-0.2,0,0-3.1-0.6-6.9c-0.6-3.7-1.7-6.6-1.5-6.7c0.4,0.6,0.7,1.2,0.9,1.9c0.6,1.5,1,3.1,1.2,4.8
		c0.2,1.6,0.4,3.3,0.3,4.9C303.3,133.9,303.2,134.6,303,135.3z"/>
	<path class="st6" d="M305.5,214.9c-0.1-1-0.1-2,0-2.9c0.1-1.8,0.1-4.3,0-7s-0.2-5.2-0.4-7c-0.1-1-0.2-1.9-0.2-2.9
		c0.3,0.9,0.5,1.9,0.5,2.9c0.3,2.3,0.5,4.7,0.5,7.1c0.1,2.4,0,4.7-0.2,7.1C305.9,213,305.7,214,305.5,214.9z"/>
	<path class="st6" d="M304,239.8c-1.4-1.3-2.9-2.5-4.4-3.6c-1.6-0.9-3.3-1.8-5.1-2.5C298.4,234.4,301.8,236.6,304,239.8L304,239.8z"
		/>
	<path class="st6" d="M316.5,255.2c-2.2,1.4-4.5,2.7-6.9,3.9c-2.3,1.3-4.7,2.4-7.1,3.4c2.2-1.4,4.5-2.7,6.9-3.8
		C311.7,257.3,314.1,256.2,316.5,255.2z"/>
	<path class="st6" d="M281.3,262c-1.8-2-3.5-4.2-5.1-6.4c-1.7-2.1-3.2-4.4-4.6-6.8c1.8,2,3.5,4.2,5.1,6.4
		C278.4,257.4,279.9,259.7,281.3,262z"/>
	<path class="st6" d="M270.5,233.6c-0.2-0.7-0.3-1.4-0.2-2c0-1.3-0.1-3,0-5s0.3-3.7,0.4-5c0-0.7,0.2-1.4,0.4-2c0.1,0-0.1,3.1-0.3,7
		S270.6,233.6,270.5,233.6z"/>
	<path class="st6" d="M258.7,282.1c-2-1.4-4-2.9-5.8-4.5c-1.9-1.5-3.8-3.2-5.5-4.9c2,1.4,4,2.9,5.8,4.5
		C255.2,278.7,257,280.4,258.7,282.1z"/>
	<path class="st6" d="M265.8,280.6c-0.3-2.6-0.5-5.2-0.5-7.8c-0.1-2.6-0.1-5.2,0.1-7.9c0.3,2.6,0.5,5.2,0.5,7.8
		C266,275.4,266,278,265.8,280.6z"/>
	<path class="st6" d="M279.7,310.8c0,0.1-1.2-0.4-3.3-1.1c-5.2-1.7-10.7-2.4-16.2-2.2c-2.1,0.1-3.4,0.2-3.4,0.1
		c0.3-0.1,0.6-0.2,0.9-0.2c0.6-0.1,1.4-0.2,2.5-0.3c5.5-0.4,11.1,0.3,16.3,2.2c0.8,0.3,1.6,0.6,2.3,1
		C279.2,310.4,279.4,310.6,279.7,310.8z"/>
	<path class="st6" d="M291.1,316.3c0.8,0.4,1.6,0.9,2.3,1.5c3.5,2.7,6.6,5.9,9.3,9.3c0.6,0.7,1.1,1.4,1.5,2.3
		c-0.7-0.6-1.3-1.3-1.8-2c-1.1-1.3-2.7-3-4.5-4.8s-3.5-3.4-4.8-4.5C292.4,317.5,291.8,316.9,291.1,316.3z"/>
	<path class="st6" d="M296.1,264.2c-1-1.9-1.9-3.8-2.6-5.8c-0.9-1.9-1.6-3.9-2.1-6c1,1.9,1.9,3.8,2.6,5.8
		C294.9,260.1,295.6,262.1,296.1,264.2z"/>
	<path class="st6" d="M256,162.8c-0.4,0.6-0.9,1.2-1.5,1.7c-1.3,1.2-2.8,2.4-4.3,3.4c-1.5,1-3.1,1.9-4.8,2.7
		c-0.7,0.4-1.4,0.6-2.1,0.8c-0.1-0.1,3.1-1.5,6.6-3.9S255.8,162.7,256,162.8z"/>
	<path class="st6" d="M258.5,152.2c-0.2-3-0.1-6,0.4-8.9C259.2,146.3,259,149.3,258.5,152.2z"/>
	<path class="st6" d="M238.6,161.1c-1.8-0.5-3.5-1.2-5.2-2.1c-1.7-0.7-3.4-1.6-5-2.6c1.8,0.5,3.5,1.2,5.2,2.1
		C235.3,159.2,237,160.1,238.6,161.1z"/>
	<path class="st6" d="M274.2,147.5c-0.1-1.8-0.1-3.7,0.2-5.5c0-1.8,0.3-3.7,0.7-5.5c0.1,1.8,0.1,3.7-0.2,5.5
		C274.8,143.9,274.6,145.7,274.2,147.5z"/>
	<path class="st6" d="M228,182.3c-2-0.5-4-1.4-5.7-2.5c-1.8-1-3.5-2.3-4.9-3.9c0.1-0.1,2.2,1.7,5.2,3.4S228,182.2,228,182.3z"/>
	<path class="st6" d="M213.1,162c-1.3,1.8-2.7,3.4-4.3,5c-1.4,1.7-3,3.3-4.6,4.7C207,168.2,209.9,164.9,213.1,162L213.1,162z"/>
	<path class="st6" d="M211.9,143.7c-1.7-0.6-3.3-1.5-4.7-2.6c-1.5-1-2.8-2.3-3.8-3.7c0.1-0.1,1.8,1.6,4.1,3.3
		C209.9,142.4,211.9,143.6,211.9,143.7z"/>
	<path class="st6" d="M202.5,147.5c-0.6,1.1-1.3,2.1-2.1,2.9c-0.7,1-1.6,1.8-2.5,2.6C199.1,151,200.7,149.1,202.5,147.5z"/>
	<path class="st6" d="M222.5,113.7c-1.2,1.8-2.5,3.6-3.9,5.2c-1.3,1.7-2.7,3.4-4.3,4.9c1.2-1.8,2.5-3.6,3.9-5.2
		C219.5,116.8,221,115.2,222.5,113.7z"/>
	<path class="st6" d="M205.4,117.6c-1.5-1.4-3-2.9-4.3-4.5c-1.4-1.5-2.7-3.1-3.9-4.8c1.5,1.4,3,2.9,4.3,4.5
		C203,114.2,204.2,115.8,205.4,117.6z"/>
	<path class="st6" d="M214,95.8c-1.1-1.5-2.2-3.1-3-4.7c-1-1.6-1.8-3.3-2.5-5c1.1,1.5,2.1,3.1,3,4.8C212.4,92.4,213.3,94.1,214,95.8
		z"/>
	<path class="st6" d="M213.5,81.8c-0.1-0.1,1.4-2,2.6-4.7s1.6-5.1,1.8-5C217.6,75.8,216.1,79.2,213.5,81.8L213.5,81.8z"/>
	<path class="st6" d="M197,81c-0.2-2.1,0.3-4.2,1.2-6.1c0.6-1.4,1.4-2.6,2.4-3.7c0.4-0.5,0.9-0.9,1.4-1.2c-1.3,1.6-2.4,3.3-3.4,5.1
		C198,77,197.4,79,197,81z"/>
	<path class="st3" d="M341.2,57.2c-0.5-4.1-0.5-8.3-0.1-12.5c0.4-4.2,2-8.2,4.6-11.4c2.7-3.2,6.9-5.2,11.1-4.7
		c2.6,0.3,5,1.6,7.5,1.5c3-0.1,5.6-1.9,8.3-3.2c4.3-1.9,9.1-2.4,13.6-1.4c2.4,0.5,4.7,1.6,6.5,3.3c1.8,1.7,2.6,4.2,2.1,6.7
		c3-0.1,6,0.1,9,0.8c3,0.7,5.5,2.5,7.2,5c1.5,2.6,1.4,6.2-0.8,8.3c2.9-0.4,5.7,1.5,6.4,4.3c0.5,2.9-0.6,5.8-3,7.4
		c-2.8,1.7-6.1,2.4-9.4,1.9c-2.8-0.5-6-1.3-8.2-3"/>
	<path class="st7" d="M339,151.4L339,151.4c11.5,2.9,23.2-3.9,26.2-15.4c1.7-6.4,3.1-11.8,3.1-11.8s16.7,2.9,22.2-13
		s15-53.2,15-53.2l0,0c-15.7-14.1-37.9-18.5-57.8-11.6l-3,1l-21.2,77.3c-3.2,11.5,3.5,23.4,15,26.6
		C338.7,151.3,338.9,151.4,339,151.4z"/>
	<path class="st8" d="M368.4,124c-7.4-2.3-13.9-6.8-18.7-12.8c0,0,1.1,13.1,17.4,17L368.4,124z"/>
	<path class="st7" d="M341.3,64.6c-0.2-0.2-9.8-6.9-13.1,4.1s8.4,12,8.5,11.7S341.3,64.6,341.3,64.6z"/>
	<path class="st8" d="M334.5,75.2c0,0-0.2,0.1-0.6,0.1c-0.5,0-1-0.1-1.4-0.4c-1-0.8-1.5-2.9-0.9-4.9c0.3-1,0.7-1.8,1.4-2.6
		c0.4-0.6,1.1-1,1.9-1c0.5,0,0.9,0.4,1,0.9c0.1,0.4-0.1,0.6,0,0.6s0.3-0.1,0.3-0.6c0-0.3-0.1-0.6-0.2-0.8c-0.2-0.3-0.6-0.5-1-0.6
		c-1-0.1-1.9,0.3-2.5,1.1c-0.8,0.8-1.3,1.8-1.6,2.9c-0.6,2.2-0.1,4.6,1.4,5.6c0.5,0.4,1.2,0.4,1.8,0.2
		C334.5,75.5,334.6,75.2,334.5,75.2z"/>
	<path class="st3" d="M392.1,81c-0.4,1.3-1.7,1.9-3,1.6c-1.2-0.3-2-1.6-1.7-2.8c0,0,0,0,0-0.1c0.4-1.2,1.7-1.9,3-1.6
		C391.7,78.4,392.4,79.6,392.1,81C392.2,80.9,392.1,80.9,392.1,81z"/>
	<path class="st3" d="M395.1,79.4c-0.4,0.2-1.7-1.6-4.1-2.5s-4.6-0.2-4.8-0.6c-0.1-0.2,0.4-0.6,1.4-0.9c1.3-0.4,2.7-0.4,4,0.1
		c1.3,0.4,2.4,1.2,3.1,2.3C395.2,78.7,395.3,79.3,395.1,79.4z"/>
	<path class="st3" d="M368.1,72.9c-0.4,1.2-1.7,1.9-3,1.6c-1.2-0.3-2-1.6-1.7-2.8c0,0,0,0,0-0.1c0.4-1.2,1.7-1.9,3-1.6
		C367.7,70.4,368.5,71.6,368.1,72.9C368.1,72.9,368.1,72.9,368.1,72.9z"/>
	<path class="st3" d="M371,71.8c-0.4,0.2-1.7-1.6-4.1-2.5s-4.6-0.2-4.8-0.6c-0.1-0.2,0.4-0.6,1.4-0.9c1.3-0.4,2.7-0.4,4,0.1
		c1.3,0.4,2.4,1.2,3.2,2.3C371.1,71.1,371.1,71.7,371,71.8z"/>
	<path class="st3" d="M373.7,92.9c0-0.1,1.6,0.1,4.2,0.6c0.6,0.1,1.3,0.2,1.5-0.2c0.3-0.6,0.3-1.3,0.2-2c-0.1-1.7-0.2-3.5-0.2-5.4
		c-0.3-7.6-0.3-13.8,0-13.8s0.8,6.2,1.1,13.8c0.1,1.9,0.1,3.7,0.2,5.4c0.1,0.9,0,1.8-0.5,2.6c-0.3,0.4-0.8,0.6-1.3,0.6
		c-0.4,0-0.8-0.1-1.1-0.2C375.2,93.5,373.7,93,373.7,92.9z"/>
	<path class="st3" d="M366,92.2c0.4,0.1-0.5,2.8,1.2,5.4s4.5,3.3,4.5,3.7c0,0.2-0.8,0.3-2-0.1c-1.6-0.5-2.9-1.5-3.8-2.9
		c-0.8-1.3-1.1-2.9-0.8-4.5C365.3,92.7,365.8,92.1,366,92.2z"/>
	<path class="st3" d="M395.6,74.8c-0.6,0.4-2.1-0.7-4.1-1.4s-3.9-0.9-4.1-1.6c-0.1-0.3,0.4-0.8,1.3-1.1c2.5-0.6,5.1,0.4,6.6,2.4
		C395.9,74,395.9,74.6,395.6,74.8z"/>
	<path class="st3" d="M370.7,61.9c-0.4,0.2-1-0.1-1.7-0.6c-0.9-0.5-1.9-1-2.9-1.4c-1-0.4-2.1-0.6-3.1-0.8c-0.9-0.2-1.5-0.3-1.7-0.7
		s0.3-1,1.4-1.4c3-0.9,6.2,0.3,7.8,2.9C371.1,61,371.1,61.7,370.7,61.9z"/>
	<path class="st3" d="M404.8,63.2c-8.4-0.5-16.3-3.6-22.8-8.9c-7.2-5.9-16.2-10-18.6-8.8s-4.8,9.4-13.4,10c0,0-3.1,16.1-9.3,14
		s3.4-25.8,3.4-25.8l17.2-4.1l17.7,0.7l15.9,3.6l13.7,7.9L404.8,63.2z"/>
	<rect x="91.1" y="0.3" class="st6" width="224.5" height="349.6"/>
	<path class="st3" d="M315.7,349.9c0-2.1-0.1-144.1-0.2-349.6l0.2,0.2H91.2l0,0l0.3-0.3c0,132.3,0,254.1-0.1,349.6l-0.2-0.2
		L315.7,349.9l-224.5,0.2H91v-0.2c0-95.6,0-217.4-0.1-349.6V0h0.3h224.5h0.2v0.2C315.8,205.8,315.7,347.8,315.7,349.9z"/>
	<path class="st4" d="M151.3,78.1h-28.7c-2,0-3.6-1.6-3.6-3.6V34.8c0-2,1.6-3.6,3.6-3.6h18.2l14.1,14.5v28.8
		C154.9,76.5,153.3,78.1,151.3,78.1z"/>
	<path class="st4" d="M140.8,31.2v11.2c0,1.8,1.5,3.3,3.3,3.3h10.8L140.8,31.2z"/>
	<g class="st9">
		<path d="M140.9,43.4c0,1.7,1.2,3.2,2.9,3.6l0.4,0.1c1.4,0.2,10.6,1.9,10.6,1.7v-3h-10.8C144.1,45.7,141.5,45.6,140.9,43.4z"/>
	</g>
	<g class="st5">
		<path class="st10" d="M140.8,31.2v11.2c0,1.8,1.5,3.3,3.3,3.3h10.8L140.8,31.2z"/>
	</g>
	<path class="st6" d="M138.4,41.9c-2.2,0.3-4.4,0.3-6.6,0.3c-2.2,0.1-4.4,0-6.6-0.3c2.2-0.3,4.4-0.3,6.6-0.3
		C134,41.6,136.2,41.6,138.4,41.9z"/>
	<path class="st6" d="M147,48.2c0,0.1-4.9,0.3-10.9,0.3s-10.9-0.1-10.9-0.3S130,48,136,48S147,48.1,147,48.2z"/>
	<path class="st6" d="M148.9,53.5c0,0.1-5.3,0.3-11.9,0.3s-11.9-0.1-11.9-0.3s5.3-0.3,11.9-0.3S148.9,53.4,148.9,53.5z"/>
	<path class="st6" d="M148.9,58.5c0,0.1-5.3,0.3-11.9,0.3s-11.9-0.1-11.9-0.3s5.3-0.3,11.9-0.3S148.9,58.4,148.9,58.5z"/>
	<path class="st6" d="M148.9,63.5c0,0.1-5.3,0.3-11.9,0.3s-11.9-0.1-11.9-0.3s5.3-0.3,11.9-0.3S148.9,63.4,148.9,63.5z"/>
	<path class="st6" d="M148.9,68.5c0,0.1-5.3,0.3-11.9,0.3s-11.9-0.1-11.9-0.3s5.3-0.3,11.9-0.3S148.9,68.3,148.9,68.5z"/>
	<path class="st3" d="M164.9,51.6h-3v-1.1h7.3v1.1h-3v7.7H165L164.9,51.6z"/>
	<path class="st3" d="M177,58.3v1.1h-6.4v-8.8h6.2v1.1h-5v2.7h4.4v1.1h-4.4v2.9L177,58.3z"/>
	<path class="st3" d="M185,59.4l-1.9-2.7c-0.2,0-0.4,0-0.6,0h-2.2v2.7h-1.3v-8.8h3.5c2.3,0,3.7,1.2,3.7,3.1c0.1,1.3-0.7,2.4-1.9,2.8
		l2.1,3H185z M185,53.6c0-1.3-0.8-2-2.5-2h-2.2v4h2.1C184.1,55.6,184.9,54.9,185,53.6L185,53.6z"/>
	<path class="st3" d="M196.4,59.4v-6.4l-3.2,5.4h-0.6l-3.2-5.3v6.4h-1.2v-8.8h1l3.7,6.2l3.6-6.2h1v8.8L196.4,59.4z"/>
	<path class="st3" d="M199.5,58.3l0.5-1c0.8,0.7,1.9,1,2.9,1c1.5,0,2.2-0.6,2.2-1.4c0-2.2-5.4-0.8-5.4-4.1c0-1.4,1.1-2.5,3.4-2.5
		c1,0,2,0.3,2.8,0.8l-0.4,1c-0.7-0.5-1.6-0.7-2.4-0.7c-1.5,0-2.1,0.6-2.1,1.4c0,2.1,5.4,0.8,5.4,4c0,1.4-1.1,2.5-3.4,2.5
		C201.7,59.4,200.5,59.1,199.5,58.3z"/>
	<path class="st3" d="M210.8,54.9c-0.1-2.6,1.9-4.8,4.5-4.9c2.6-0.1,4.8,1.9,4.9,4.5c0.1,2.6-1.9,4.8-4.5,4.9c-0.1,0-0.1,0-0.2,0
		c-2.5,0.1-4.6-1.8-4.7-4.3C210.8,55.1,210.8,55,210.8,54.9z M218.9,54.9c0-1.9-1.5-3.4-3.4-3.5c-1.9,0-3.4,1.5-3.5,3.4
		c0,1.9,1.5,3.4,3.4,3.5c0,0,0,0,0,0c1.8,0.1,3.4-1.4,3.4-3.2C218.9,55,218.9,55,218.9,54.9z"/>
	<path class="st3" d="M223.4,51.6v3.1h4.4v1.1h-4.4v3.6h-1.3v-8.8h6.2v1.1L223.4,51.6z"/>
	<path class="st3" d="M232.7,58.3l0.5-1c0.8,0.7,1.9,1,2.9,1c1.5,0,2.2-0.6,2.2-1.4c0-2.2-5.4-0.8-5.4-4.1c0-1.4,1.1-2.5,3.4-2.5
		c1,0,2,0.3,2.8,0.8l-0.4,1c-0.7-0.5-1.6-0.7-2.4-0.7c-1.5,0-2.1,0.6-2.1,1.4c0,2.1,5.4,0.8,5.4,4c0,1.4-1.1,2.5-3.4,2.5
		C234.9,59.4,233.7,59.1,232.7,58.3z"/>
	<path class="st3" d="M247.8,58.3v1.1h-6.4v-8.8h6.2v1.1h-5v2.7h4.4v1.1h-4.4v2.9L247.8,58.3z"/>
	<path class="st3" d="M255.7,59.4l-1.9-2.7c-0.2,0-0.4,0-0.6,0h-2.2v2.7h-1.3v-8.8h3.4c2.3,0,3.7,1.2,3.7,3.1c0.1,1.3-0.7,2.4-2,2.8
		l2.1,3H255.7z M255.7,53.6c0-1.3-0.8-2-2.5-2h-2.1v4h2.1C254.9,55.6,255.7,54.9,255.7,53.6L255.7,53.6z"/>
	<path class="st3" d="M266.7,50.5l-3.9,8.8h-1.3l-3.9-8.8h1.4l3.2,7.3l3.2-7.3H266.7z"/>
	<path class="st3" d="M267.8,50.5h1.3v8.8h-1.3V50.5z"/>
	<path class="st3" d="M271,54.9c0-2.5,1.9-4.5,4.4-4.5c0.1,0,0.2,0,0.3,0c1.3-0.1,2.5,0.5,3.4,1.4l-0.8,0.8c-0.6-0.7-1.6-1-2.5-1
		c-1.9,0-3.4,1.5-3.4,3.4c0,1.9,1.5,3.4,3.4,3.4c0.9,0,1.8-0.4,2.5-1.1l0.8,0.8c-0.9,0.9-2.1,1.4-3.4,1.4c-2.5,0.1-4.6-1.8-4.7-4.3
		C271,55.1,271,55,271,54.9z"/>
	<path class="st3" d="M287.3,58.3v1.1h-6.4v-8.8h6.2v1.1h-5v2.7h4.4v1.1h-4.4v2.9L287.3,58.3z"/>
	<path class="st1" d="M172.9,68.4l-2.4,7h-1.1l-1.9-5.6l-1.9,5.6h-1.1l-2.4-7h1l1.9,5.7l2-5.7h0.9l1.9,5.8l1.9-5.8L172.9,68.4z"/>
	<path class="st1" d="M178.4,73.1H174c0.1,1,1,1.6,1.9,1.6c0.6,0,1.1-0.2,1.5-0.6l0.5,0.6c-0.5,0.6-1.3,0.9-2.1,0.9
		c-1.5,0.1-2.7-1-2.9-2.5c0-0.1,0-0.2,0-0.3c-0.1-1.4,1.1-2.7,2.5-2.7c0.1,0,0.1,0,0.2,0c1.4,0,2.6,1.1,2.6,2.5c0,0.1,0,0.2,0,0.2
		C178.4,72.9,178.4,73,178.4,73.1z M174,72.4h3.4c-0.1-0.9-1-1.6-1.9-1.5C174.7,71,174.1,71.6,174,72.4z"/>
	<path class="st1" d="M179.7,68h1v7.5h-1V68z"/>
	<path class="st1" d="M182,72.8c0-1.5,1.1-2.7,2.6-2.7c0.1,0,0.1,0,0.2,0c0.9,0,1.7,0.4,2.2,1.1l-0.7,0.5c-0.3-0.5-0.9-0.8-1.4-0.8
		c-1,0.1-1.8,1-1.7,2c0.1,0.9,0.8,1.7,1.7,1.7c0.6,0,1.1-0.3,1.4-0.8l0.7,0.5c-0.5,0.8-1.3,1.2-2.2,1.1c-1.5,0.1-2.7-1-2.8-2.5
		C182,72.9,182,72.9,182,72.8z"/>
	<path class="st1" d="M187.7,72.8c0-1.5,1.2-2.8,2.7-2.8c1.5,0,2.8,1.2,2.8,2.7c0,1.5-1.2,2.8-2.7,2.8c0,0,0,0,0,0
		c-1.5,0.1-2.7-1.1-2.8-2.5C187.7,72.9,187.7,72.9,187.7,72.8z M192.3,72.8c0-1-0.9-1.8-1.9-1.7c-1,0-1.8,0.9-1.7,1.9
		c0,1,0.8,1.7,1.8,1.7c1,0,1.8-0.7,1.8-1.7C192.3,72.9,192.3,72.9,192.3,72.8L192.3,72.8z"/>
	<path class="st1" d="M203.4,72.4v3.1h-1v-2.9c0-1.1-0.5-1.6-1.4-1.6s-1.6,0.6-1.6,1.8v2.7h-1v-2.9c0-1.1-0.5-1.6-1.4-1.6
		s-1.6,0.6-1.6,1.8v2.7h-1v-5.3h1.1v0.8c0.4-0.6,1.1-0.9,1.8-0.9c0.8,0,1.5,0.3,1.9,1c0.5-0.7,1.2-1,2.1-1c1.1-0.1,2.1,0.7,2.2,1.8
		C203.5,72.1,203.4,72.2,203.4,72.4z"/>
	<path class="st1" d="M210,73.1h-4.3c0.1,1,1,1.6,1.9,1.6c0.6,0,1.1-0.2,1.5-0.6l0.5,0.6c-1.1,1.2-3,1.2-4.1,0.1
		c-0.5-0.5-0.8-1.2-0.9-1.9c-0.1-1.4,1.1-2.7,2.5-2.7c0.1,0,0.1,0,0.2,0c1.4,0,2.6,1.1,2.6,2.5c0,0.1,0,0.2,0,0.2
		C210,72.9,210,73,210,73.1z M205.7,72.4h3.4c-0.1-0.9-1-1.6-1.9-1.5C206.4,71,205.8,71.6,205.7,72.4z"/>
	<path class="st1" d="M211.2,74.9c0-0.4,0.3-0.6,0.6-0.6c0,0,0,0,0,0c0.4,0,0.6,0.3,0.6,0.6c0,0.4-0.3,0.6-0.6,0.6c0,0,0,0,0,0
		C211.5,75.6,211.2,75.3,211.2,74.9C211.2,74.9,211.2,74.9,211.2,74.9z M211.3,68.4h1.1l-0.2,4.8h-0.8L211.3,68.4z"/>
	<path class="st1" d="M300.1,21.8h1.2c0.7,0,1.3,0.6,1.3,1.3V314c0,0.7-0.6,1.3-1.3,1.3h-1.2c-0.7,0-1.3-0.6-1.3-1.3V23.1
		C298.7,22.4,299.3,21.8,300.1,21.8z"/>
	<path class="st4" d="M300.1,21.8h1.2c0.7,0,1.3,0.6,1.3,1.3v148.7c0,0.7-0.6,1.3-1.3,1.3h-1.2c-0.7,0-1.3-0.6-1.3-1.3V23.1
		C298.7,22.4,299.3,21.8,300.1,21.8z"/>
	<path class="st3" d="M126.3,109.4v7h-1v-6.1h-1.6v-0.9L126.3,109.4z"/>
	<path class="st3" d="M127.8,115.8c0-0.4,0.3-0.7,0.7-0.7c0.4,0,0.7,0.3,0.7,0.7c0,0.4-0.3,0.7-0.7,0.7
		C128.1,116.5,127.8,116.2,127.8,115.8C127.8,115.9,127.8,115.8,127.8,115.8z"/>
	<path class="st3" d="M134.8,110.3h-2.4v-0.9h5.8v0.9h-2.4v6.2h-1L134.8,110.3z"/>
	<path class="st3" d="M143.4,114.1h-4.3c0.1,0.9,1,1.6,1.9,1.6c0.6,0,1.1-0.2,1.5-0.6l0.5,0.6c-1.1,1.2-2.9,1.2-4.1,0.1
		c-0.5-0.5-0.9-1.2-0.9-2c-0.1-1.4,1.1-2.7,2.5-2.7c0.1,0,0.1,0,0.2,0c1.4,0,2.6,1.1,2.6,2.5c0,0.1,0,0.2,0,0.2
		C143.4,113.9,143.4,114,143.4,114.1z M139.1,113.4h3.5c-0.1-0.9-1-1.6-1.9-1.5C139.8,112,139.2,112.6,139.1,113.4L139.1,113.4z"/>
	<path class="st3" d="M147.6,111.1v0.9h-0.2c-0.9-0.1-1.6,0.6-1.7,1.5c0,0.1,0,0.2,0,0.3v2.6h-1v-5.3h0.9v0.9
		C146,111.4,146.8,111,147.6,111.1z"/>
	<path class="st3" d="M157.6,113.4v3.1h-1v-3c0-1-0.5-1.6-1.4-1.6s-1.6,0.6-1.6,1.8v2.7h-1v-3c0-1-0.5-1.6-1.4-1.6
		c-0.9,0-1.6,0.6-1.6,1.5c0,0.1,0,0.2,0,0.3v2.7h-1v-5.3h0.9v0.8c0.4-0.6,1.1-0.9,1.8-0.9c0.8,0,1.5,0.3,1.9,1c0.5-0.7,1.2-1,2.1-1
		c1.1-0.2,2.1,0.6,2.3,1.6C157.7,112.9,157.7,113.1,157.6,113.4z"/>
	<path class="st3" d="M129,224.8v0.9h-5V225l2.9-2.8c0.8-0.7,0.9-1.2,0.9-1.6c0-0.7-0.5-1.2-1.5-1.2c-0.7,0-1.4,0.2-1.8,0.8
		l-0.7-0.6c0.7-0.7,1.6-1.1,2.6-1.1c1.5,0,2.4,0.8,2.4,2c0,0.9-0.4,1.7-1.1,2.2l-2.2,2.1L129,224.8z"/>
	<path class="st3" d="M129.9,225.1c0-0.4,0.3-0.7,0.6-0.7c0,0,0,0,0,0c0.4,0,0.7,0.3,0.7,0.7s-0.3,0.7-0.7,0.7
		C130.3,225.8,129.9,225.4,129.9,225.1C129.9,225.1,129.9,225.1,129.9,225.1z"/>
	<path class="st3" d="M135.5,218.7h1v6.2h3.8v0.9h-4.8V218.7z"/>
	<path class="st3" d="M141.2,218.7c0-0.3,0.3-0.6,0.6-0.6c0,0,0,0,0,0c0.3,0,0.6,0.3,0.6,0.6c0,0.3-0.3,0.6-0.6,0.6
		C141.5,219.3,141.2,219.1,141.2,218.7z M141.4,220.4h1v5.3h-1V220.4z"/>
	<path class="st3" d="M143.7,223c0-1.5,1.1-2.7,2.6-2.7c0.1,0,0.1,0,0.2,0c0.9-0.1,1.7,0.4,2.2,1.1l-0.7,0.5
		c-0.3-0.5-0.9-0.8-1.4-0.8c-1,0.1-1.8,1-1.7,2c0.1,0.9,0.8,1.7,1.7,1.7c0.6,0,1.1-0.3,1.4-0.8l0.7,0.5c-0.5,0.8-1.3,1.2-2.2,1.1
		c-1.5,0.1-2.7-1.1-2.8-2.5C143.7,223.2,143.7,223.1,143.7,223z"/>
	<path class="st3" d="M154.6,223.4h-4.3c0.1,0.9,1,1.6,1.9,1.6c0.6,0,1.1-0.2,1.5-0.6l0.5,0.6c-1.1,1.2-3,1.2-4.1,0.1
		c-0.5-0.5-0.8-1.2-0.9-1.9c-0.1-1.4,1.1-2.7,2.5-2.7c0.1,0,0.1,0,0.2,0c1.4,0,2.6,1.1,2.6,2.5c0,0.1,0,0.2,0,0.2
		C154.6,223.1,154.6,223.3,154.6,223.4z M150.3,222.7h3.4c-0.1-0.9-1-1.6-1.9-1.5C151,221.2,150.4,221.8,150.3,222.7z"/>
	<path class="st3" d="M161,222.6v3.1h-1v-3c0-1-0.5-1.5-1.4-1.5c-0.9-0.1-1.6,0.6-1.7,1.5c0,0.1,0,0.2,0,0.3v2.7h-1v-5.3h0.9v0.8
		c0.5-0.6,1.2-0.9,1.9-0.9c1.1-0.1,2.2,0.7,2.3,1.8C161.1,222.3,161.1,222.4,161,222.6z"/>
	<path class="st3" d="M162.4,223c0-1.5,1.1-2.7,2.6-2.7c0.1,0,0.1,0,0.2,0c0.9-0.1,1.7,0.4,2.2,1.1l-0.7,0.5
		c-0.3-0.5-0.9-0.8-1.4-0.8c-1,0.1-1.8,1-1.7,2c0.1,0.9,0.8,1.7,1.7,1.7c0.6,0,1.1-0.3,1.4-0.8l0.7,0.5c-0.5,0.8-1.3,1.2-2.2,1.1
		c-1.5,0.1-2.7-1.1-2.8-2.5C162.4,223.2,162.4,223.1,162.4,223z"/>
	<path class="st3" d="M173.3,223.4H169c0.1,0.9,1,1.6,1.9,1.6c0.6,0,1.1-0.2,1.5-0.6l0.5,0.6c-1.1,1.2-3,1.2-4.1,0.1
		c-0.5-0.5-0.8-1.2-0.9-1.9c-0.1-1.4,1.1-2.7,2.5-2.7c0.1,0,0.1,0,0.2,0c1.4,0,2.6,1.1,2.6,2.5c0,0.1,0,0.2,0,0.2
		C173.3,223.1,173.3,223.3,173.3,223.4z M169,222.7h3.4c-0.1-0.9-1-1.6-1.9-1.5C169.7,221.2,169.1,221.8,169,222.7z"/>
	<path class="st3" d="M277.8,132.3c0,0.1-34.5,0.3-77.1,0.3s-77.1-0.1-77.1-0.3s34.5-0.3,77.1-0.3S277.8,132.2,277.8,132.3z"/>
	<path class="st3" d="M277.8,144c0,0.1-34.5,0.3-77.1,0.3s-77.1-0.1-77.1-0.3c0-0.1,34.5-0.3,77.1-0.3S277.8,143.8,277.8,144z"/>
	<path class="st3" d="M277.8,155.6c0,0.1-34.5,0.3-77.1,0.3s-77.1-0.1-77.1-0.3s34.5-0.3,77.1-0.3S277.8,155.5,277.8,155.6z"/>
	<path class="st3" d="M277.8,167.3c0,0.1-34.5,0.3-77.1,0.3s-77.1-0.1-77.1-0.3c0-0.1,34.5-0.3,77.1-0.3S277.8,167.1,277.8,167.3z"
		/>
	<path class="st3" d="M277.8,179c0,0.1-34.5,0.3-77.1,0.3s-77.1-0.1-77.1-0.3s34.5-0.3,77.1-0.3S277.8,178.8,277.8,179z"/>
	<path class="st3" d="M277.8,190.6c0,0.1-34.5,0.3-77.1,0.3s-77.1-0.1-77.1-0.3s34.5-0.3,77.1-0.3S277.8,190.5,277.8,190.6z"/>
	<path class="st3" d="M277.8,234.9c0,0.1-34.5,0.3-77.1,0.3s-77.1-0.1-77.1-0.3s34.5-0.3,77.1-0.3S277.8,234.8,277.8,234.9z"/>
	<path class="st1" d="M277.8,244.9c0,0.1-34.5,0.3-77.1,0.3s-77.1-0.1-77.1-0.3s34.5-0.3,77.1-0.3S277.8,244.8,277.8,244.9z"/>
	<path class="st2" d="M277.8,254.9c0,0.1-34.5,0.3-77.1,0.3s-77.1-0.1-77.1-0.3s34.5-0.3,77.1-0.3S277.8,254.7,277.8,254.9z"/>
	<rect x="207.5" y="284.7" class="st4" width="81.5" height="30.4"/>
	<path class="st10" d="M234.6,301.5h-4l-0.8,1.9h-1.1l3.4-7.5h1.1l3.4,7.5h-1.1L234.6,301.5z M234.2,300.6l-1.6-3.7l-1.6,3.7H234.2z
		"/>
	<path class="st10" d="M237,300.5c0-1.6,1.2-2.9,2.8-2.9c0.1,0,0.1,0,0.2,0c0.9-0.1,1.8,0.4,2.3,1.2l-0.8,0.5
		c-0.3-0.5-0.9-0.8-1.5-0.8c-1.1,0-2,0.9-2,2s0.9,2,2,2c0.6,0,1.2-0.3,1.5-0.8l0.8,0.5c-0.5,0.8-1.4,1.3-2.3,1.2
		c-1.6,0.1-2.9-1.1-3-2.7C237,300.6,237,300.6,237,300.5z"/>
	<path class="st10" d="M243,300.5c0-1.6,1.2-2.9,2.8-2.9c0.1,0,0.1,0,0.2,0c0.9-0.1,1.8,0.4,2.3,1.2l-0.8,0.5
		c-0.3-0.5-0.9-0.8-1.5-0.8c-1.1,0-2,0.9-2,2s0.9,2,2,2c0.6,0,1.2-0.3,1.5-0.8l0.8,0.5c-0.5,0.8-1.4,1.3-2.3,1.2
		c-1.6,0.1-2.9-1.1-3-2.7C243,300.6,243,300.6,243,300.5z"/>
	<path class="st10" d="M254.8,300.9h-4.6c0.1,1,1,1.7,2.1,1.7c0.6,0,1.2-0.2,1.6-0.7l0.6,0.7c-0.6,0.6-1.4,1-2.3,0.9
		c-1.6,0.1-2.9-1.1-3.1-2.6c0-0.1,0-0.2,0-0.3c-0.1-1.5,1.1-2.8,2.7-2.9c0.1,0,0.1,0,0.2,0c1.5,0,2.8,1.1,2.8,2.7c0,0.1,0,0.2,0,0.3
		C254.8,300.6,254.8,300.8,254.8,300.9z M250.2,300.2h3.7c-0.1-1-1-1.7-2-1.6C250.9,298.6,250.2,299.3,250.2,300.2z"/>
	<path class="st10" d="M262.2,300.5c0.1,1.5-1.1,2.8-2.6,2.9c-0.1,0-0.2,0-0.3,0c-0.8,0-1.5-0.3-2-0.9v3h-1v-7.8h1v0.9
		c0.5-0.6,1.2-1,2-1c1.5-0.1,2.8,1.1,2.9,2.6C262.2,300.3,262.2,300.4,262.2,300.5z M261.1,300.5c0-1.1-0.9-1.9-2-1.9
		c-1.1,0-1.9,0.9-1.9,2c0,1,0.9,1.9,1.9,1.9c1,0,1.9-0.8,1.9-1.8C261.1,300.6,261.1,300.6,261.1,300.5L261.1,300.5z"/>
	<path class="st10" d="M266.8,303c-0.4,0.3-0.8,0.4-1.3,0.4c-0.9,0.1-1.7-0.5-1.8-1.4c0-0.1,0-0.2,0-0.4v-3.1h-1v-0.9h1v-1.2h1v1.2
		h1.6v0.9h-1.6v3.1c-0.1,0.5,0.2,0.9,0.7,1c0.1,0,0.2,0,0.2,0c0.3,0,0.6-0.1,0.8-0.3L266.8,303z"/>
	<path class="st4" d="M119.8,315.4c0,0-0.1,0-0.2-0.1l-0.6-0.5l-2.4-1.9l-0.1-0.1l0.1,0c9.8-3.8,41.9-15.8,81.5-30.5l0.1,0l0.1,0.1
		l3.2,2.5l0.1,0.1v30.8h-0.3l-58.3-0.1l-17.1-0.1h-4.6h-1.2c-0.1,0-0.3,0-0.4,0h0.4h1.2h4.6l17.1-0.1l58.2-0.1l-0.2,0.2
		c0-7,0-14.4,0-22v-8.4l0.1,0.2l-3.2-2.5h0.2c-39.6,14.7-71.7,26.6-81.6,30.2v-0.1l2.4,2l0.6,0.5L119.8,315.4z"/>
	<rect x="116.6" y="282.4" class="st10" width="81.5" height="30.4"/>
	<path class="st4" d="M198.2,312.8c0,0,0-0.2,0-0.5s0-0.9,0-1.6c0-1.4,0-3.4,0-6c0-5.2-0.1-12.8-0.1-22.2l0.2,0.2l-81.5,0.1l0,0
		l0.3-0.3c0,10.6,0,20.9,0,30.4l-0.2-0.2l58.4,0.1l17,0.1h4.6h1.2L198.2,312.8l-0.3,0h-1.2h-4.5l-16.9,0.1l-58.6,0.1h-0.2v-0.2
		c0-9.5,0-19.8,0-30.4v-0.3h0.3l81.5,0.1h0.2v0.2c0,9.5-0.1,17.1-0.1,22.3c0,2.6,0,4.6,0,6c0,0.7,0,1.2,0,1.5
		S198.2,312.8,198.2,312.8z"/>
	<path class="st4" d="M139,295.5h3.2c2.1-0.2,3.9,1.4,4.1,3.5c0.2,2.1-1.4,3.9-3.5,4.1c-0.2,0-0.4,0-0.6,0H139V295.5z M142.1,302.1
		c1.6,0.1,2.9-1,3.1-2.6c0.1-1.6-1-2.9-2.6-3.1c-0.2,0-0.3,0-0.5,0h-2v5.7H142.1z"/>
	<path class="st4" d="M152.9,300.5h-4.6c0.1,1,1.1,1.8,2.1,1.7c0.6,0,1.2-0.2,1.6-0.7l0.6,0.7c-1.2,1.2-3.2,1.2-4.4,0
		c-0.5-0.5-0.9-1.3-0.9-2c-0.1-1.5,1.1-2.9,2.7-2.9c0.1,0,0.1,0,0.2,0c1.5,0,2.8,1.2,2.8,2.7c0,0.1,0,0.2,0,0.3
		C152.9,300.3,152.9,300.4,152.9,300.5z M148.2,299.8h3.7c-0.1-1-1.1-1.7-2.1-1.6C149,298.3,148.3,298.9,148.2,299.8z"/>
	<path class="st4" d="M153.8,300.2c0-1.6,1.2-2.9,2.8-2.9c0.1,0,0.1,0,0.2,0c0.9-0.1,1.8,0.4,2.3,1.2l-0.8,0.5
		c-0.3-0.5-0.9-0.8-1.6-0.8c-1.1,0-2,0.9-2,2s0.9,2,2,2c0.6,0,1.2-0.3,1.6-0.8l0.8,0.5c-0.5,0.8-1.4,1.3-2.3,1.2
		c-1.6,0.1-2.9-1.1-3-2.7C153.8,300.3,153.8,300.2,153.8,300.2z"/>
	<path class="st4" d="M160.4,295h1v8h-1V295z"/>
	<path class="st4" d="M163.2,295.5c0-0.4,0.3-0.7,0.7-0.7c0,0,0,0,0,0c0.4,0,0.7,0.3,0.7,0.7c0,0.4-0.3,0.7-0.7,0.7
		C163.5,296.2,163.2,295.9,163.2,295.5z M163.4,297.3h1v5.7h-1V297.3z"/>
	<path class="st4" d="M171.9,299.7v3.3h-1v-3.1c0-1.1-0.6-1.7-1.6-1.7c-0.9-0.1-1.8,0.6-1.8,1.6c0,0.1,0,0.2,0,0.3v3h-1v-5.7h1v0.9
		c0.5-0.6,1.3-1,2.1-0.9c1.2-0.1,2.3,0.9,2.3,2.1C171.9,299.5,171.9,299.6,171.9,299.7z"/>
	<path class="st4" d="M179,300.5h-4.6c0.1,1,1,1.7,2.1,1.7c0.6,0,1.2-0.2,1.6-0.7l0.6,0.7c-1.2,1.2-3.2,1.2-4.4,0
		c-0.5-0.5-0.9-1.3-0.9-2c-0.1-1.5,1.1-2.9,2.7-2.9c0.1,0,0.1,0,0.2,0c1.5,0,2.8,1.2,2.8,2.7c0,0.1,0,0.2,0,0.3
		C179,300.3,179,300.4,179,300.5z M174.3,299.8h3.7c-0.1-1-1-1.7-2-1.6C175.1,298.2,174.4,298.9,174.3,299.8z"/>
	<line class="st11" x1="198.2" y1="312.3" x2="201.3" y2="315.4"/>
	<path class="st4" d="M201.3,315.4c-0.1,0.1-0.9-0.5-1.8-1.3s-1.5-1.6-1.4-1.7s0.9,0.5,1.8,1.3S201.4,315.3,201.3,315.4z"/>
	<path class="st7" d="M317.8,307.8l11.6-5.6l-6.4-18.9L309,280c-1.3-0.3-2.8-0.6-4.4-1.1c-1.9-0.5-3.7-1.4-5.3-2.5
		c-2.1-1.3-3.9-2.9-5.6-4.7c-1.3-1.8-4.1-1.1-4.1,0.9s3.5,7.1,9.9,10.7s-4.9,5.3-8.9,6s-16.5,3.5-17.2,4.9c-1.1,2.1,1,3.6,5,2.9
		s16.3-2.4,16.6-0.2v0.1c-2,3.2-1.8,7.3,0.5,10.2c2.3,2.8,5.6,6.4,8.1,5.8C308.3,311.8,317.8,307.8,317.8,307.8z"/>
	<path class="st4" d="M317.1,274.5l10.9,36.9l84.7-25.7c18-5.5,28.1-24.5,22.6-42.5c-0.1-0.2-0.1-0.4-0.2-0.6l-20.8-64.6l-45.1,11.2
		l24.8,59.8L317.1,274.5z"/>
	<path class="st3" d="M414.6,285l-0.4,0.1l-1.2,0.4l-4.7,1.5l-17.8,5.4l-61.7,18.7l-0.2,0.1l-0.1-0.2c-3.8-11.3-7.4-23.7-11.7-36.4
		l-0.1-0.2l0.2-0.1l2.1-0.7l74.8-24.8l-0.1,0.3c-6-14.5-10.9-26.4-14.3-34.7c-1.7-4.1-3-7.3-3.9-9.5c-0.4-1.1-0.8-1.9-1-2.5
		s-0.3-0.9-0.3-0.9s0.1,0.3,0.4,0.8l1.1,2.5c0.9,2.2,2.3,5.4,4,9.5c3.4,8.3,8.4,20.1,14.4,34.6l0.1,0.2l-0.2,0.1L319.3,274l-2.1,0.7
		l0.2-0.3c4.2,12.8,7.9,25.1,11.6,36.4l-0.3-0.2l61.7-18.5l17.8-5.3l4.8-1.4l1.2-0.4L414.6,285z"/>
	<path class="st3" d="M409.7,259.7c-0.1,0-0.6-0.9-1.8-2.3c-3-3.7-7-6.4-11.5-7.7c-1.7-0.5-2.9-0.6-2.9-0.7c0.3,0,0.5,0,0.8,0
		c0.7,0.1,1.4,0.2,2.1,0.4c2.3,0.6,4.6,1.5,6.6,2.9c2,1.3,3.8,3,5.2,4.9c0.4,0.6,0.8,1.2,1.2,1.8
		C409.5,259.1,409.6,259.4,409.7,259.7z"/>
	<path class="st6" d="M389.1,192.2c-0.3-1.8-0.3-3.6-0.3-5.5c-0.1-1.8,0-3.7,0.3-5.5C389.5,184.9,389.5,188.6,389.1,192.2z"/>
	<path class="st6" d="M406.1,193.1c-0.8-1.7-1.4-3.4-1.8-5.2c-0.6-1.8-1.1-3.6-1.3-5.4C404.3,185.9,405.4,189.5,406.1,193.1z"/>
	<path class="st6" d="M395.6,208.5c-3.5,0-6.9-1-9.9-2.9c0.1-0.1,2.2,0.9,4.9,1.6S395.6,208.3,395.6,208.5z"/>
	<path class="st6" d="M414.8,216.9c0-1.8,0.3-3.5,0.6-5.2c0.2-1.7,0.6-3.5,1.1-5.1c0,1.8-0.3,3.5-0.6,5.2
		C415.8,213.5,415.4,215.2,414.8,216.9z"/>
	<path class="st6" d="M407.9,230.7c-1.8-3.1-3.3-6.4-4.5-9.8C405.3,224,406.8,227.3,407.9,230.7z"/>
	<path class="st6" d="M405.1,242.7c-1.6-0.5-3.2-1.2-4.8-2c-1.6-0.7-3.1-1.5-4.5-2.5c1.6,0.5,3.2,1.2,4.7,2
		C402.2,240.9,403.7,241.8,405.1,242.7z"/>
	<path class="st6" d="M426.8,239.5c-0.5,1.6-1.2,3.1-1.9,4.6c-0.6,1.6-1.2,3.1-2,4.5C423.6,245.4,424.9,242.3,426.8,239.5z"/>
	<path class="st6" d="M420.7,268.6c-0.7-3.7-1.1-7.5-1.1-11.2c0.4,1.8,0.7,3.7,0.8,5.6C420.7,264.8,420.8,266.7,420.7,268.6z"/>
	<path class="st6" d="M405.5,277.8c-1.4-1-2.8-2.1-4-3.3c-1.3-1.1-2.5-2.3-3.6-3.7c1.4,1,2.8,2.1,4,3.3
		C403.2,275.2,404.4,276.4,405.5,277.8z"/>
	<path class="st6" d="M379.1,280.4c-1.9,3.2-4.1,6.2-6.5,8.9c0.9-1.6,1.9-3.2,3.1-4.6C376.6,283.1,377.8,281.7,379.1,280.4z"/>
	<path class="st6" d="M387.4,268c-1.5-1-2.9-2.2-4-3.6c-1.3-1.3-2.4-2.7-3.2-4.3c0.1-0.1,1.6,1.8,3.6,4S387.5,267.9,387.4,268z"/>
	<path class="st6" d="M367.5,270.8c-1.3,0.5-2.6,0.7-4,0.5c-1.4,0-2.7-0.4-3.9-1.1c0.1-0.1,1.8,0.4,3.9,0.5S367.5,270.7,367.5,270.8
		z"/>
	<path class="st6" d="M354.9,292.7c-0.5-1.4-0.8-2.8-1-4.3c-0.3-1.4-0.5-2.9-0.5-4.4C354.3,286.8,354.8,289.8,354.9,292.7z"/>
	<path class="st6" d="M340,300.2c-3.4-1.8-6.7-3.8-9.8-6.2c1.8,0.8,3.5,1.8,5,2.9C337,297.9,338.5,299,340,300.2z"/>
	<path class="st6" d="M345.3,273.6c0.1,0.1-1.3,1.8-3,4.1s-2.8,4.1-2.9,4.1c0.6-1.6,1.5-3.1,2.5-4.4
		C342.9,275.9,344,274.7,345.3,273.6z"/>
	<path class="st6" d="M333.8,278.7c-1-0.2-2-0.6-2.9-1.2c-1-0.4-1.9-0.9-2.7-1.6C330.2,276.5,332.1,277.4,333.8,278.7L333.8,278.7z"
		/>
	<g class="st9">
		<path d="M393.3,247.4c4.5,0.5,9,0.9,13.6,1.5c1.6,0.1,3.1,0.5,4.6,1c1.5,0.6,2.7,1.7,3.3,3.2c0.6,1.5,0.1,3.2-1.2,4.2
			c-1.3,0.7-2.9,0.6-4.1-0.2c-1.2-0.8-2.3-1.7-3.4-2.6c-2-1.7-4.4-2.9-6.9-3.6c-1.2-0.2-2.3-0.6-3.3-1.2c-1.1-0.6-1.6-1.8-1.4-3"/>
	</g>
</g>
</svg>
